<mxfile host="app.diagrams.net" modified="2024-06-07T08:52:53.634Z" agent="Mozilla/5.0 (Windows NT 10.0; Win64; x64) AppleWebKit/537.36 (KHTML, like Gecko) Chrome/122.0.6261.462 YaBrowser/24.4.5.462 (beta) Yowser/2.5 Safari/537.36" etag="wEMX-dUB7kVoHNx774m7" version="24.4.9" type="github">
  <diagram name="Страница — 1" id="mEbBsww8K36PE93D8n_A">
    <mxGraphModel dx="2074" dy="759" grid="1" gridSize="10" guides="1" tooltips="1" connect="1" arrows="1" fold="1" page="1" pageScale="1" pageWidth="827" pageHeight="1169" math="0" shadow="0">
      <root>
        <mxCell id="0" />
        <mxCell id="1" parent="0" />
        <mxCell id="kaPXMv_Ddo8DlkS1RdKA-1" value="Сотрудник 1" style="shape=umlActor;verticalLabelPosition=bottom;verticalAlign=top;html=1;outlineConnect=0;" parent="1" vertex="1">
          <mxGeometry x="105" y="570" width="30" height="60" as="geometry" />
        </mxCell>
        <mxCell id="kaPXMv_Ddo8DlkS1RdKA-2" value="Сотрудник 2&lt;div&gt;&lt;br&gt;&lt;/div&gt;" style="shape=umlActor;verticalLabelPosition=bottom;verticalAlign=top;html=1;outlineConnect=0;" parent="1" vertex="1">
          <mxGeometry x="640" y="420" width="30" height="60" as="geometry" />
        </mxCell>
        <mxCell id="kaPXMv_Ddo8DlkS1RdKA-8" style="edgeStyle=orthogonalEdgeStyle;rounded=0;orthogonalLoop=1;jettySize=auto;html=1;exitX=0;exitY=0.3333333333333333;exitDx=0;exitDy=0;exitPerimeter=0;" parent="1" edge="1">
          <mxGeometry relative="1" as="geometry">
            <mxPoint x="120" y="410" as="targetPoint" />
            <mxPoint x="210" y="330" as="sourcePoint" />
          </mxGeometry>
        </mxCell>
        <mxCell id="kaPXMv_Ddo8DlkS1RdKA-6" value="Отдел 1" style="shape=umlActor;verticalLabelPosition=bottom;verticalAlign=top;html=1;outlineConnect=0;" parent="1" vertex="1">
          <mxGeometry x="210" y="300" width="30" height="60" as="geometry" />
        </mxCell>
        <mxCell id="kaPXMv_Ddo8DlkS1RdKA-10" style="edgeStyle=orthogonalEdgeStyle;rounded=0;orthogonalLoop=1;jettySize=auto;html=1;" parent="1" source="kaPXMv_Ddo8DlkS1RdKA-9" target="kaPXMv_Ddo8DlkS1RdKA-1" edge="1">
          <mxGeometry relative="1" as="geometry" />
        </mxCell>
        <mxCell id="kaPXMv_Ddo8DlkS1RdKA-9" value="Создание xml файла" style="ellipse;whiteSpace=wrap;html=1;" parent="1" vertex="1">
          <mxGeometry x="60" y="410" width="120" height="80" as="geometry" />
        </mxCell>
        <mxCell id="kaPXMv_Ddo8DlkS1RdKA-13" style="edgeStyle=orthogonalEdgeStyle;rounded=0;orthogonalLoop=1;jettySize=auto;html=1;exitX=0.5;exitY=0;exitDx=0;exitDy=0;" parent="1" source="kaPXMv_Ddo8DlkS1RdKA-12" edge="1">
          <mxGeometry relative="1" as="geometry">
            <mxPoint x="319.7647058823529" y="490" as="targetPoint" />
          </mxGeometry>
        </mxCell>
        <mxCell id="kaPXMv_Ddo8DlkS1RdKA-17" style="edgeStyle=orthogonalEdgeStyle;rounded=0;orthogonalLoop=1;jettySize=auto;html=1;exitX=1;exitY=0.5;exitDx=0;exitDy=0;" parent="1" source="kaPXMv_Ddo8DlkS1RdKA-12" edge="1">
          <mxGeometry relative="1" as="geometry">
            <mxPoint x="450" y="610" as="targetPoint" />
          </mxGeometry>
        </mxCell>
        <mxCell id="kaPXMv_Ddo8DlkS1RdKA-12" value="Парс xml файла" style="ellipse;whiteSpace=wrap;html=1;" parent="1" vertex="1">
          <mxGeometry x="260" y="570" width="120" height="80" as="geometry" />
        </mxCell>
        <mxCell id="kaPXMv_Ddo8DlkS1RdKA-14" value="Запись в базу данных" style="ellipse;whiteSpace=wrap;html=1;" parent="1" vertex="1">
          <mxGeometry x="260" y="410" width="120" height="80" as="geometry" />
        </mxCell>
        <mxCell id="kaPXMv_Ddo8DlkS1RdKA-20" style="edgeStyle=orthogonalEdgeStyle;rounded=0;orthogonalLoop=1;jettySize=auto;html=1;" parent="1" source="kaPXMv_Ddo8DlkS1RdKA-18" edge="1">
          <mxGeometry relative="1" as="geometry">
            <mxPoint x="510" y="490" as="targetPoint" />
          </mxGeometry>
        </mxCell>
        <mxCell id="kaPXMv_Ddo8DlkS1RdKA-18" value="Оптимизация xml файла" style="ellipse;whiteSpace=wrap;html=1;" parent="1" vertex="1">
          <mxGeometry x="450" y="570" width="120" height="80" as="geometry" />
        </mxCell>
        <mxCell id="kaPXMv_Ddo8DlkS1RdKA-21" value="Создание отчётов в формате pdf" style="ellipse;whiteSpace=wrap;html=1;" parent="1" vertex="1">
          <mxGeometry x="450" y="410" width="120" height="80" as="geometry" />
        </mxCell>
        <mxCell id="kaPXMv_Ddo8DlkS1RdKA-25" value="" style="endArrow=none;html=1;rounded=0;" parent="1" target="kaPXMv_Ddo8DlkS1RdKA-2" edge="1">
          <mxGeometry width="50" height="50" relative="1" as="geometry">
            <mxPoint x="570" y="450" as="sourcePoint" />
            <mxPoint x="620" y="400" as="targetPoint" />
          </mxGeometry>
        </mxCell>
        <mxCell id="kaPXMv_Ddo8DlkS1RdKA-26" value="" style="endArrow=none;html=1;rounded=0;entryX=0.008;entryY=0.4;entryDx=0;entryDy=0;entryPerimeter=0;" parent="1" source="kaPXMv_Ddo8DlkS1RdKA-1" target="kaPXMv_Ddo8DlkS1RdKA-12" edge="1">
          <mxGeometry width="50" height="50" relative="1" as="geometry">
            <mxPoint x="150" y="602" as="sourcePoint" />
            <mxPoint x="220" y="599.5" as="targetPoint" />
          </mxGeometry>
        </mxCell>
      </root>
    </mxGraphModel>
  </diagram>
</mxfile>
